<svg width="24" height="24" viewBox="0 0 24 24" fill="none" xmlns="http://www.w3.org/2000/svg">
<path d="M9.47008 12.1876C9.14263 11.8648 8.88191 11.4824 8.70232 11.0618L8.69449 11.0433C8.64532 10.9262 8.60268 10.8069 8.56667 10.6858C8.53102 10.566 8.48101 10.4498 8.41848 10.3418C8.20291 9.96943 7.83861 9.69347 7.40176 9.69347C6.83822 9.69347 6.37199 10.1475 6.47378 10.6939C6.50881 10.882 6.55371 11.0682 6.60833 11.2519C6.66488 11.442 6.73185 11.6294 6.80907 11.8132C6.81685 11.8317 6.82472 11.8502 6.8327 11.8686C7.11431 12.5188 7.51967 13.11 8.02704 13.6102C8.54878 14.1246 9.16818 14.5326 9.84986 14.8109C10.5315 15.0893 11.2622 15.2326 12 15.2326C12.7379 15.2326 13.4685 15.0893 14.1502 14.8109C14.8319 14.5326 15.4513 14.1246 15.973 13.6102C16.4804 13.11 16.8857 12.5188 17.1674 11.8686C17.1753 11.8502 17.1832 11.8317 17.191 11.8132C17.2682 11.6294 17.3352 11.442 17.3917 11.2519C17.4463 11.0682 17.4912 10.882 17.5263 10.6939C17.6281 10.1475 17.1618 9.69347 16.5983 9.69347C16.1614 9.69347 15.7971 9.96943 15.5816 10.3418C15.519 10.4498 15.469 10.566 15.4334 10.6858C15.3974 10.8069 15.3547 10.9262 15.3056 11.0433L15.2977 11.0618C15.1181 11.4824 14.8574 11.8648 14.53 12.1876C14.1977 12.5151 13.8033 12.7749 13.3692 12.9522C12.9351 13.1295 12.4699 13.2207 12 13.2207C11.5302 13.2207 11.0649 13.1295 10.6308 12.9522C10.1967 12.7749 9.80232 12.5151 9.47008 12.1876Z" fill="white"/>
<path fill-rule="evenodd" clip-rule="evenodd" d="M6.88976 3.2367C6.86177 3.29706 6.83487 3.35796 6.80907 3.41937C6.58624 3.94972 6.44875 4.51011 6.40068 5.08033H3.24183C2.02718 5.08033 1.01531 5.99821 0.914436 7.19152L0.0205715 17.766C-0.263099 21.1219 2.42322 24 5.83906 24H18.1609C21.5768 24 24.2631 21.1219 23.9794 17.766L23.0856 7.19152C22.9847 5.99821 21.9728 5.08033 20.7582 5.08033H17.5994C17.5513 4.51011 17.4138 3.94972 17.191 3.41937C17.1652 3.35796 17.1383 3.29706 17.1103 3.2367C16.8321 2.63654 16.4471 2.08971 15.973 1.62236C15.4513 1.10801 14.8319 0.700004 14.1502 0.421638C13.4685 0.143273 12.7379 0 12 0C11.2622 0 10.5315 0.143273 9.84986 0.421638C9.16818 0.700004 8.54878 1.10801 8.02704 1.62236C7.55298 2.08971 7.16798 2.63654 6.88976 3.2367ZM15.3056 4.18928C15.4257 4.47519 15.5069 4.77481 15.5475 5.08033H8.45254C8.49319 4.77481 8.57437 4.47519 8.69449 4.18928C8.8743 3.76134 9.13785 3.3725 9.47008 3.04497C9.80232 2.71744 10.1967 2.45763 10.6308 2.28037C11.0649 2.10311 11.5302 2.01187 12 2.01187C12.4699 2.01187 12.9351 2.10311 13.3692 2.28037C13.8033 2.45763 14.1977 2.71744 14.53 3.04497C14.8622 3.3725 15.1258 3.76134 15.3056 4.18928ZM20.7582 7.38272H3.24183L2.34797 17.9572C2.17776 19.9707 3.78955 21.6976 5.83906 21.6976H18.1609C20.2104 21.6976 21.8222 19.9707 21.652 17.9572L20.7582 7.38272Z" fill="white"/>
</svg>
